<svg width="17" height="16" viewBox="0 0 17 16" fill="none" xmlns="http://www.w3.org/2000/svg">
<g clip-path="url(#clip0_15_11)">
<path d="M14.1012 3.07333C13.7607 2.73267 13.3564 2.46243 12.9115 2.27805C12.4665 2.09368 11.9895 1.99878 11.5079 1.99878C11.0262 1.99878 10.5493 2.09368 10.1043 2.27805C9.65934 2.46243 9.25505 2.73267 8.91455 3.07333L8.20788 3.78L7.50122 3.07333C6.81342 2.38553 5.88057 1.99914 4.90788 1.99914C3.93519 1.99914 3.00234 2.38553 2.31455 3.07333C1.62676 3.76112 1.24036 4.69397 1.24036 5.66666C1.24036 6.63935 1.62676 7.5722 2.31455 8.26L3.02122 8.96666L8.20788 14.1533L13.3945 8.96666L14.1012 8.26C14.4419 7.91949 14.7121 7.51521 14.8965 7.07023C15.0809 6.62526 15.1758 6.14832 15.1758 5.66666C15.1758 5.185 15.0809 4.70807 14.8965 4.26309C14.7121 3.81812 14.4419 3.41383 14.1012 3.07333Z" stroke="white" stroke-linecap="round" stroke-linejoin="round"/>
</g>
<defs>
<clipPath id="clip0_15_11">
<rect width="16" height="16" fill="white" transform="translate(0.207886)"/>
</clipPath>
</defs>
</svg>
