<svg width="93" height="42" viewBox="0 0 93 42" fill="none" xmlns="http://www.w3.org/2000/svg">
<path d="M7.68 41.12C7.57333 41.12 7.45333 41.08 7.32 41C6.97333 40.76 6.8 40.48 6.8 40.16C6.8 39.6 7.16 39.1867 7.88 38.92C7.98667 38.8667 8.09333 38.84 8.2 38.84C6.68 38.28 5.32 37.4533 4.12 36.36C2.94667 35.2667 2.02667 33.9733 1.36 32.48C0.693333 30.9867 0.36 29.3867 0.36 27.68C0.36 26.5067 0.533333 25.2933 0.88 24.04C1.25333 22.76 1.81333 21.48 2.56 20.2C3.41333 18.7867 4.46667 17.5867 5.72 16.6C6.97333 15.6133 8.33333 14.8667 9.8 14.36C11.2933 13.8533 12.7867 13.6 14.28 13.6C14.4933 13.6 14.6933 13.6 14.88 13.6C15.0667 13.6 15.2533 13.6133 15.44 13.64C15.6267 13.5867 15.8 13.5467 15.96 13.52C16.12 13.4667 16.2667 13.4 16.4 13.32C16.9867 13.0267 17.3733 12.68 17.56 12.28C17.16 12.2 16.8267 11.9867 16.56 11.64C16.32 11.2667 16.2 10.8667 16.2 10.44C16.2 9.98667 16.2667 9.61333 16.4 9.32C16.5333 9 16.6533 8.73333 16.76 8.52C16.8133 8.38667 16.8667 8.24 16.92 8.08C16.9733 7.89333 17 7.70667 17 7.52C17 7.28 16.9467 7.05333 16.84 6.84C16.76 6.62667 16.5867 6.49333 16.32 6.44C16.3733 6.38667 16.4267 6.33333 16.48 6.28C16.56 6.22667 16.6933 6.2 16.88 6.2C17.3333 6.2 17.76 6.41333 18.16 6.84C18.56 7.26667 18.8933 7.77333 19.16 8.36C19.4267 8.92 19.56 9.42667 19.56 9.88C19.56 10.5467 19.3867 11.1067 19.04 11.56C18.72 11.9867 18.36 12.2267 17.96 12.28C17.72 12.8933 17.32 13.36 16.76 13.68L16.56 13.8C17.7333 13.9867 18.8533 14.3733 19.92 14.96C20.9867 15.52 21.9467 16.2667 22.8 17.2C23.28 17.7333 23.6933 18.3467 24.04 19.04C24.4133 19.7067 24.6933 20.4 24.88 21.12C25.0133 21.4133 25.2267 21.6533 25.52 21.84C25.8133 22 26.0533 22.1067 26.24 22.16C26.3467 22.1867 26.4933 22.2 26.68 22.2C26.8933 22.2 27.08 22.1733 27.24 22.12C27.4267 22.04 27.5333 21.92 27.56 21.76C27.6133 21.6267 27.6667 21.56 27.72 21.56C27.9067 21.56 28 21.7733 28 22.2C28 22.52 27.8933 22.7733 27.68 22.96C27.4667 23.12 27.2133 23.2 26.92 23.2C26.8133 23.2 26.68 23.1867 26.52 23.16C26.3867 23.1333 26.2533 23.08 26.12 23C25.6133 22.76 25.2533 22.3733 25.04 21.84C25.0933 22.1067 25.1333 22.3733 25.16 22.64C25.1867 22.9067 25.2 23.1733 25.2 23.44C25.2 24.0533 25.12 24.6533 24.96 25.24C24.8267 25.8533 24.6133 26.4133 24.32 26.92C24.3467 27 24.36 27.08 24.36 27.16C24.3867 27.24 24.4 27.32 24.4 27.4C24.4 27.7467 24.3067 28.08 24.12 28.4C23.9333 28.7467 23.64 29.0667 23.24 29.36C22.7333 29.68 22.04 29.84 21.16 29.84C20.92 29.84 20.68 29.8267 20.44 29.8C20.2 29.7733 19.96 29.7333 19.72 29.68C19.3733 29.6267 18.9867 29.6667 18.56 29.8C18.16 29.9333 17.92 30.1467 17.84 30.44C17.7867 30.6267 17.7333 30.76 17.68 30.84C17.6533 30.92 17.5867 30.8933 17.48 30.76C17.24 30.44 17.12 30.1067 17.12 29.76C17.12 29.0933 17.4933 28.52 18.24 28.04C18.9867 27.56 19.88 27.3733 20.92 27.48C21.3733 27.5067 21.7867 27.48 22.16 27.4C22.5333 27.32 22.8533 27.2 23.12 27.04C22.7733 27.0667 22.44 27 22.12 26.84C21.8 26.7067 21.6133 26.48 21.56 26.16V26C21.56 25.68 21.6267 25.4533 21.76 25.32C21.84 25.24 21.92 25.2 22 25.2C22.1333 25.2 22.1733 25.2933 22.12 25.48C22.0133 25.7467 22.0933 25.9867 22.36 26.2C22.6267 26.4133 22.9333 26.52 23.28 26.52C23.52 26.52 23.7333 26.4667 23.92 26.36L24 26.24C24.24 25.8667 24.4 25.4533 24.48 25C24.56 24.5467 24.6 24.0667 24.6 23.56C24.6 22.5467 24.4 21.52 24 20.48C23.6 19.44 23.0533 18.5333 22.36 17.76C21.4 16.72 20.3067 15.96 19.08 15.48C17.8533 15 16.5733 14.76 15.24 14.76C12.8933 14.76 10.6667 15.4 8.56 16.68C8.72 16.6533 8.86667 16.64 9 16.64C9.16 16.64 9.30667 16.64 9.44 16.64C10.16 16.64 10.72 16.7333 11.12 16.92L11.16 16.88C11.3467 16.6933 11.6533 16.6 12.08 16.6C12.4267 16.6 12.7867 16.6933 13.16 16.88C13.5333 17.0667 13.8667 17.3467 14.16 17.72C14.4533 18.0667 14.6933 18.5333 14.88 19.12C15.0667 19.7067 15.16 20.2667 15.16 20.8C15.16 21.0933 15.12 21.3733 15.04 21.64C14.9867 21.9067 14.88 22.1333 14.72 22.32C14.56 22.5067 14.4133 22.6133 14.28 22.64C14.1733 22.64 14.0933 22.6267 14.04 22.6C14.1467 22.4667 14.2 22.3067 14.2 22.12C14.2 21.8 14.0533 21.5067 13.76 21.24C13.4933 20.9733 13.2133 20.7867 12.92 20.68C12.6533 20.5733 12.3733 20.4667 12.08 20.36C11.7867 20.2267 11.48 19.9867 11.16 19.64C10.76 19.24 10.56 18.7467 10.56 18.16C10.56 17.8133 10.64 17.52 10.8 17.28C10.5067 17.1733 10.12 17.12 9.64 17.12C9.24 17.12 8.81333 17.1733 8.36 17.28C7.93333 17.36 7.52 17.5067 7.12 17.72C5.84 18.7067 4.82667 19.8933 4.08 21.28C3.44 22.4 2.97333 23.5333 2.68 24.68C2.38667 25.8 2.24 26.9067 2.24 28C2.24 29.76 2.6 31.4 3.32 32.92C4.04 34.44 5.05333 35.6933 6.36 36.68C7.69333 37.6667 9.22667 38.28 10.96 38.52C11.36 38.5733 11.7467 38.6133 12.12 38.64C12.52 38.6667 12.9067 38.68 13.28 38.68C14.4 38.68 15.4667 38.56 16.48 38.32C17.52 38.1067 18.4933 37.8 19.4 37.4C18.84 37.4 18.3333 37.2267 17.88 36.88C17.4533 36.5333 17.24 36.1467 17.24 35.72C17.24 35.3467 17.3733 35.08 17.64 34.92C17.9067 34.7867 18.1467 34.72 18.36 34.72C18.52 34.72 18.6267 34.7467 18.68 34.8C18.76 34.88 18.7067 34.9733 18.52 35.08C18.3333 35.1867 18.24 35.3733 18.24 35.64C18.24 35.9333 18.32 36.2 18.48 36.44C18.56 36.6 18.7067 36.7733 18.92 36.96C19.1333 37.1467 19.4 37.24 19.72 37.24C21.6133 36.3333 23.3333 35.0933 24.88 33.52C26.4533 31.9467 27.9067 30.1467 29.24 28.12C30.5733 26.0933 31.84 23.9733 33.04 21.76C34.2667 19.5467 35.4933 17.3467 36.72 15.16C37.8933 13.08 39.08 11.1467 40.28 9.36C41.5067 7.54667 42.76 5.97333 44.04 4.64C45.3467 3.30667 46.6933 2.30667 48.08 1.64C47.0133 1.58667 45.84 1.49333 44.56 1.36C43.3067 1.22667 42.08 1.10667 40.88 0.999999C39.68 0.866666 38.6133 0.799999 37.68 0.799999C35.44 0.799999 33.64 1.14667 32.28 1.84C30.92 2.50667 29.92 3.34667 29.28 4.36C28.6667 5.37333 28.36 6.4 28.36 7.44C28.36 8.58667 28.6933 9.58667 29.36 10.44C30.0533 11.2667 30.9733 11.68 32.12 11.68C32.8933 11.68 33.6267 11.4667 34.32 11.04C35.04 10.6133 35.6133 10.0533 36.04 9.36C36.4933 8.64 36.7067 7.85333 36.68 7C36.6533 6.73333 36.5733 6.46667 36.44 6.2C36.3067 5.90667 36.1067 5.66667 35.84 5.48C35.4933 5.16 35.1067 5 34.68 5C34.44 5 34.2667 5.06667 34.16 5.2C34.08 5.28 34.0133 5.32 33.96 5.32C33.8533 5.32 33.8 5.22667 33.8 5.04C33.8 4.90667 33.8133 4.8 33.84 4.72C34.0533 4.08 34.44 3.76 35 3.76C35.5333 3.76 36.0133 4.04 36.44 4.6C36.6533 4.86667 36.8 5.24 36.88 5.72C36.9867 6.2 37.04 6.64 37.04 7.04C37.04 7.2 37.04 7.36 37.04 7.52C37.04 7.68 37.0267 7.84 37 8C37.08 7.86667 37.16 7.74667 37.24 7.64C37.3467 7.50667 37.4667 7.4 37.6 7.32C37.84 7.16 38.0933 7.08 38.36 7.08C38.6267 7.08 38.8533 7.16 39.04 7.32C39.2267 7.48 39.32 7.70667 39.32 8C39.32 8.21333 39.2667 8.36 39.16 8.44C39.08 8.49333 39.0267 8.44 39 8.28C38.9467 8.06667 38.7333 7.96 38.36 7.96C38.28 7.96 38.2 7.97333 38.12 8C38.04 8 37.96 8.01333 37.88 8.04C37.6933 8.09333 37.48 8.22667 37.24 8.44C37.0267 8.62667 36.84 8.86667 36.68 9.16C36.2533 10.12 35.5733 10.8533 34.64 11.36C33.7333 11.8667 32.7467 12.12 31.68 12.12C30.7733 12.12 29.9733 11.9467 29.28 11.6C28.6133 11.2533 28.0533 10.7867 27.6 10.2C27.6 10.3067 27.6 10.4133 27.6 10.52C27.6 10.6267 27.5867 10.7333 27.56 10.84C27.48 11.24 27.2933 11.56 27 11.8C27.1067 11.9867 27.16 12.2133 27.16 12.48C27.16 12.6667 27.12 12.88 27.04 13.12C26.96 13.36 26.8267 13.5867 26.64 13.8C26.4 14.0667 26.0533 14.3067 25.6 14.52C25.1467 14.7333 24.7067 14.84 24.28 14.84C24.0133 14.84 23.7733 14.7733 23.56 14.64C23.4267 14.56 23.3467 14.48 23.32 14.4C23.2933 14.2933 23.28 14.2267 23.28 14.2C23.5733 14.3333 23.84 14.2667 24.08 14C24.32 13.7333 24.4533 13.48 24.48 13.24C24.5333 13.0533 24.5867 12.8533 24.64 12.64C24.6933 12.4267 24.8133 12.1867 25 11.92C25.2933 11.5467 25.68 11.36 26.16 11.36C26.4267 11.36 26.6533 11.44 26.84 11.6C26.9467 11.4933 27.0267 11.36 27.08 11.2C27.16 11.04 27.2133 10.8667 27.24 10.68V10.36C27.24 10.2267 27.2267 10.08 27.2 9.92C27.2 9.76 27.1867 9.61333 27.16 9.48C26.9733 9.10667 26.84 8.70667 26.76 8.28C26.68 7.85333 26.6533 7.41333 26.68 6.96L26.64 7C26.5333 7.10667 26.4133 7.18667 26.28 7.24C26.1467 7.26667 26.0133 7.28 25.88 7.28C25.4 7.28 25.12 7.05333 25.04 6.6C25.0133 6.46667 25.0267 6.37333 25.08 6.32C25.16 6.24 25.2267 6.26667 25.28 6.4C25.36 6.53333 25.4933 6.6 25.68 6.6C25.84 6.6 26.0267 6.54667 26.24 6.44C26.4533 6.36 26.6667 6.14667 26.88 5.8C27.1467 4.86667 27.68 3.98667 28.48 3.16C29.28 2.30667 30.3733 1.61333 31.76 1.08C33.1467 0.546665 34.8667 0.279999 36.92 0.279999C37.6933 0.279999 38.64 0.319999 39.76 0.4C40.9067 0.479999 42.1067 0.573332 43.36 0.679998C44.6133 0.786665 45.7867 0.879999 46.88 0.96C47.9733 1.04 48.8533 1.08 49.52 1.08C50.16 0.893332 50.8533 0.799999 51.6 0.799999C52.16 0.799999 52.44 0.893332 52.44 1.08C52.44 1.26667 52.16 1.36 51.6 1.36C49.84 1.44 48.08 2.44 46.32 4.36C44.96 5.85333 43.7467 7.49333 42.68 9.28C41.6133 11.0667 40.6133 12.9333 39.68 14.88C38.7733 16.8 37.8533 18.7467 36.92 20.72C36.0133 22.6667 35.0267 24.56 33.96 26.4C32.8933 28.2667 31.68 30 30.32 31.6C28.1333 34.1867 25.7067 36.1867 23.04 37.6C20.3733 39.0133 17.3867 39.72 14.08 39.72C13.5467 39.72 13 39.7067 12.44 39.68C11.9067 39.6533 11.36 39.5867 10.8 39.48L9.48 39.24C9.05333 39.2667 8.69333 39.3867 8.4 39.6C8.16 39.7867 7.96 40 7.8 40.24C7.66667 40.48 7.66667 40.68 7.8 40.84C7.85333 40.8933 7.88 40.9467 7.88 41C7.88 41.08 7.81333 41.12 7.68 41.12ZM47.9019 25.44C47.3685 25.44 46.9019 25.2533 46.5019 24.88C46.1019 24.5067 45.9019 23.9733 45.9019 23.28C45.9019 22.9867 45.9685 22.6 46.1019 22.12C45.7285 22.5733 45.2885 23.0533 44.7819 23.56C44.3019 24.0667 43.7685 24.4933 43.1819 24.84C42.6219 25.1867 42.0485 25.36 41.4619 25.36C41.1419 25.36 40.8619 25.3067 40.6219 25.2C40.1952 25.04 39.8885 24.7867 39.7019 24.44C39.5419 24.0667 39.4619 23.6667 39.4619 23.24C39.4619 22.4933 39.6085 21.72 39.9019 20.92C40.2219 20.12 40.5019 19.4933 40.7419 19.04C40.7152 19.0667 40.6752 19.08 40.6219 19.08C40.5152 19.08 40.4085 19.04 40.3019 18.96C40.2219 18.8533 40.2219 18.7467 40.3019 18.64C40.4885 18.4 40.7685 18 41.1419 17.44C41.5419 16.88 41.9819 16.2667 42.4619 15.6C42.9419 14.9333 43.3819 14.3067 43.7819 13.72C44.2085 13.1333 44.5285 12.68 44.7419 12.36C44.9552 12.3067 45.2619 12.2267 45.6619 12.12C46.0885 11.9867 46.4752 11.92 46.8219 11.92C47.2219 11.92 47.5152 12.0267 47.7019 12.24C47.4085 12.6933 46.9952 13.2933 46.4619 14.04C45.9285 14.7867 45.3419 15.6 44.7019 16.48C44.0885 17.36 43.5019 18.2667 42.9419 19.2C42.3819 20.1333 41.9152 21.0267 41.5419 21.88C41.1952 22.7067 41.0219 23.4267 41.0219 24.04C41.0219 24.4933 41.2619 24.72 41.7419 24.72C42.3019 24.6933 42.9552 24.3467 43.7019 23.68C44.4752 22.9867 45.2619 22.12 46.0619 21.08C46.8885 20.04 47.6752 18.9733 48.4219 17.88C49.6219 16.0667 50.5552 14.6533 51.2219 13.64C51.8885 12.6267 52.2219 12.12 52.2219 12.12C52.4352 12.0933 52.7285 12.0267 53.1019 11.92C53.5019 11.7867 53.8752 11.72 54.2219 11.72C54.6219 11.72 54.8752 11.84 54.9819 12.08C54.7952 12.3733 54.4085 12.92 53.8219 13.72C53.2619 14.52 52.6219 15.44 51.9019 16.48C51.2085 17.52 50.5419 18.5733 49.9019 19.64C49.6885 19.9867 49.4485 20.4 49.1819 20.88C48.9152 21.3333 48.6752 21.7467 48.4619 22.12C48.2219 22.5467 48.0619 22.8933 47.9819 23.16C47.9285 23.4267 47.9019 23.64 47.9019 23.8C47.9019 24.3333 48.1685 24.6 48.7019 24.6C48.9952 24.6 49.3552 24.4933 49.7819 24.28C50.2085 24.04 50.6085 23.72 50.9819 23.32C51.4885 22.84 51.9952 22.2533 52.5019 21.56C53.0352 20.84 53.6485 19.8667 54.3419 18.64C54.3952 18.5333 54.5152 18.48 54.7019 18.48C54.8352 18.48 54.9152 18.5333 54.9419 18.64C54.9685 18.72 54.9552 18.8 54.9019 18.88C54.3952 19.7067 53.9019 20.5067 53.4219 21.28C52.9685 22.0267 52.4085 22.76 51.7419 23.48C51.1285 24.1467 50.4752 24.64 49.7819 24.96C49.1152 25.28 48.4885 25.44 47.9019 25.44ZM61.2853 10.44C60.912 10.44 60.6186 10.3333 60.4053 10.12C60.2186 9.88 60.1253 9.6 60.1253 9.28C60.1253 8.74667 60.312 8.32 60.6853 8C61.0586 7.65333 61.4586 7.48 61.8853 7.48C62.2586 7.48 62.552 7.6 62.7653 7.84C62.9786 8.05333 63.0853 8.33333 63.0853 8.68C63.0853 9.18667 62.8986 9.61333 62.5253 9.96C62.152 10.28 61.7386 10.44 61.2853 10.44ZM39.0453 40.56C38.272 40.5867 37.6453 40.3867 37.1653 39.96C36.6853 39.56 36.4453 39.0267 36.4453 38.36C36.4453 38.0133 36.512 37.6533 36.6453 37.28C36.7786 36.9067 36.992 36.52 37.2853 36.12C37.8986 35.2933 38.7386 34.4 39.8053 33.44C40.8453 32.48 41.992 31.5467 43.2453 30.64C44.4986 29.7333 45.7386 28.92 46.9653 28.2C48.1653 27.48 49.2186 26.9467 50.1253 26.6C50.632 25.8 51.2853 24.76 52.0853 23.48C52.8853 22.2 53.6986 20.8267 54.5253 19.36C54.4186 19.44 54.3253 19.48 54.2453 19.48C54.1386 19.48 54.072 19.4267 54.0453 19.32C54.0186 19.2133 54.0186 19.12 54.0453 19.04C54.8186 17.92 55.5386 16.8133 56.2053 15.72C56.872 14.6267 57.5386 13.5333 58.2053 12.44C58.312 12.3333 58.512 12.2533 58.8053 12.2C59.0986 12.1467 59.4053 12.12 59.7253 12.12C60.072 12.12 60.3786 12.1467 60.6453 12.2C60.912 12.2533 61.0186 12.3467 60.9653 12.48C60.9653 12.48 60.7786 12.7867 60.4053 13.4C60.0586 13.9867 59.592 14.7733 59.0053 15.76C58.4453 16.7467 57.8186 17.8267 57.1253 19C56.432 20.1733 55.7386 21.3467 55.0453 22.52C54.3786 23.6933 53.7653 24.76 53.2053 25.72C54.2186 25.24 55.272 24.6667 56.3653 24C57.4853 23.3067 58.552 22.52 59.5653 21.64C60.5786 20.76 61.4186 19.76 62.0853 18.64C62.2186 18.48 62.3386 18.4 62.4453 18.4C62.5786 18.4 62.6586 18.4533 62.6853 18.56C62.712 18.6667 62.6986 18.7733 62.6453 18.88C61.7653 20.2933 60.752 21.4933 59.6053 22.48C58.4853 23.44 57.3253 24.2533 56.1253 24.92C54.9253 25.5867 53.7653 26.1733 52.6453 26.68C51.8986 28.12 51.0453 29.72 50.0853 31.48C49.1253 33.2667 47.9386 34.96 46.5253 36.56C45.992 37.1467 45.3386 37.7333 44.5653 38.32C43.792 38.9333 42.9386 39.44 42.0053 39.84C41.072 40.2667 40.0853 40.5067 39.0453 40.56ZM38.6453 39.88C39.0453 39.88 39.5386 39.7333 40.1253 39.44C40.712 39.1733 41.352 38.7333 42.0453 38.12C43.0586 37.2133 44.072 36.12 45.0853 34.84C46.0986 33.5867 47.032 32.3067 47.8853 31C48.712 29.6933 49.3653 28.56 49.8453 27.6C49.4453 27.7867 48.8186 28.1333 47.9653 28.64C47.112 29.1733 46.1653 29.8 45.1253 30.52C44.0853 31.24 43.0453 32 42.0053 32.8C40.9653 33.6267 40.0586 34.4533 39.2853 35.28C38.6453 35.9467 38.1786 36.5733 37.8853 37.16C37.592 37.7467 37.4453 38.2533 37.4453 38.68C37.4453 39.48 37.8453 39.88 38.6453 39.88ZM69.6988 25.44C69.1654 25.44 68.6988 25.2533 68.2988 24.88C67.8988 24.5067 67.6988 23.9733 67.6988 23.28C67.6988 22.9867 67.7654 22.6 67.8988 22.12C67.5254 22.5733 67.0854 23.0533 66.5788 23.56C66.0988 24.0667 65.5654 24.4933 64.9788 24.84C64.4188 25.1867 63.8454 25.36 63.2588 25.36C62.9388 25.36 62.6588 25.3067 62.4188 25.2C61.9921 25.04 61.6854 24.7867 61.4988 24.44C61.3388 24.0667 61.2588 23.6667 61.2588 23.24C61.2588 22.4933 61.4054 21.72 61.6988 20.92C62.0188 20.12 62.2988 19.4933 62.5388 19.04C62.5121 19.0667 62.4721 19.08 62.4188 19.08C62.3121 19.08 62.2054 19.04 62.0988 18.96C62.0188 18.8533 62.0188 18.7467 62.0988 18.64C62.2854 18.4 62.5654 18 62.9388 17.44C63.3388 16.88 63.7788 16.2667 64.2588 15.6C64.7388 14.9333 65.1788 14.3067 65.5788 13.72C66.0054 13.1333 66.3254 12.68 66.5388 12.36C66.7521 12.3067 67.0588 12.2267 67.4588 12.12C67.8854 11.9867 68.2721 11.92 68.6188 11.92C69.0188 11.92 69.3121 12.0267 69.4988 12.24C69.2054 12.6933 68.7921 13.2933 68.2588 14.04C67.7254 14.7867 67.1388 15.6 66.4988 16.48C65.8854 17.36 65.2988 18.2667 64.7388 19.2C64.1788 20.1333 63.7121 21.0267 63.3388 21.88C62.9921 22.7067 62.8188 23.4267 62.8188 24.04C62.8188 24.4933 63.0588 24.72 63.5388 24.72C64.0988 24.6933 64.7521 24.3467 65.4988 23.68C66.2721 22.9867 67.0588 22.12 67.8588 21.08C68.6854 20.04 69.4721 18.9733 70.2188 17.88C71.4188 16.0667 72.3521 14.6533 73.0188 13.64C73.6854 12.6267 74.0188 12.12 74.0188 12.12C74.2321 12.0933 74.5254 12.0267 74.8988 11.92C75.2988 11.7867 75.6721 11.72 76.0188 11.72C76.4188 11.72 76.6721 11.84 76.7788 12.08C76.5921 12.3733 76.2054 12.92 75.6188 13.72C75.0588 14.52 74.4188 15.44 73.6988 16.48C73.0054 17.52 72.3388 18.5733 71.6988 19.64C71.4854 19.9867 71.2454 20.4 70.9788 20.88C70.7121 21.3333 70.4721 21.7467 70.2588 22.12C70.0188 22.5467 69.8588 22.8933 69.7788 23.16C69.7254 23.4267 69.6988 23.64 69.6988 23.8C69.6988 24.3333 69.9654 24.6 70.4988 24.6C70.7921 24.6 71.1521 24.4933 71.5788 24.28C72.0054 24.04 72.4054 23.72 72.7788 23.32C73.2854 22.84 73.7921 22.2533 74.2988 21.56C74.8321 20.84 75.4454 19.8667 76.1388 18.64C76.1921 18.5333 76.3121 18.48 76.4988 18.48C76.6321 18.48 76.7121 18.5333 76.7388 18.64C76.7654 18.72 76.7521 18.8 76.6988 18.88C76.1921 19.7067 75.6988 20.5067 75.2188 21.28C74.7654 22.0267 74.2054 22.76 73.5388 23.48C72.9254 24.1467 72.2721 24.64 71.5788 24.96C70.9121 25.28 70.2854 25.44 69.6988 25.44ZM78.5622 10.4C78.3755 10.4 78.2155 10.36 78.0822 10.28C77.9755 10.1733 77.9222 10.0667 77.9222 9.96C77.9222 9.77333 78.0955 9.68 78.4422 9.68C79.2955 9.49333 79.9889 9.17333 80.5222 8.72C81.0555 8.24 81.4689 7.72 81.7622 7.16C82.0555 6.6 82.2689 6.12 82.4022 5.72C82.2689 5.82667 82.1089 5.92 81.9222 6C81.7355 6.05333 81.5355 6.08 81.3222 6.08C80.8689 6.08 80.5355 5.90667 80.3222 5.56C80.1089 5.18667 80.0022 4.82667 80.0022 4.48C80.0022 3.94667 80.2155 3.52 80.6422 3.2C81.0955 2.88 81.5355 2.72 81.9622 2.72C82.4155 2.72 82.7889 2.89333 83.0822 3.24C83.3755 3.56 83.5222 3.94667 83.5222 4.4C83.5222 4.82667 83.4155 5.34667 83.2022 5.96C83.0155 6.57333 82.7089 7.2 82.2822 7.84C81.8822 8.45333 81.3755 9 80.7622 9.48C80.1489 9.96 79.4155 10.2667 78.5622 10.4ZM92.7156 18.4C92.7956 18.4 92.8623 18.44 92.9156 18.52C92.969 18.6 92.969 18.72 92.9156 18.88C91.6623 20.88 90.2356 22.3067 88.6356 23.16C87.0356 23.9867 85.449 24.5467 83.8756 24.84C83.2356 25 82.569 25.08 81.8756 25.08C80.969 25.08 80.1156 24.9067 79.3156 24.56C78.5156 24.2133 77.9423 23.64 77.5956 22.84C77.4356 22.44 77.3556 22.04 77.3556 21.64C77.3556 21.0533 77.5023 20.5467 77.7956 20.12C78.1156 19.6667 78.449 19.3467 78.7956 19.16C79.009 19.0267 79.2356 18.9467 79.4756 18.92C79.7423 18.8667 80.009 18.84 80.2756 18.84C80.6223 18.84 80.929 18.88 81.1956 18.96C81.2756 18.8267 81.5156 18.44 81.9156 17.8C82.3156 17.1333 82.809 16.36 83.3956 15.48C83.9823 14.5733 84.5956 13.72 85.2356 12.92C85.929 12.0667 86.5956 11.36 87.2356 10.8C87.8756 10.24 88.3423 9.93333 88.6356 9.88C88.7156 9.85333 88.7956 9.84 88.8756 9.84C88.9556 9.84 89.0223 9.84 89.0756 9.84C89.369 9.84 89.5823 9.90667 89.7156 10.04C89.8756 10.1733 89.9556 10.3333 89.9556 10.52C89.9556 10.7067 89.849 10.8933 89.6356 11.08C89.449 11.2667 89.169 11.36 88.7956 11.36C88.369 11.36 87.9423 11.48 87.5156 11.72C87.089 11.9333 86.8356 12.1867 86.7556 12.48C86.6756 12.72 86.6356 12.9867 86.6356 13.28C86.6356 13.76 86.7156 14.24 86.8756 14.72C87.0623 15.2 87.2356 15.68 87.3956 16.16C87.5556 16.64 87.7023 17.1333 87.8356 17.64C87.9956 18.1467 88.0756 18.6933 88.0756 19.28C88.0756 19.8133 87.9956 20.36 87.8356 20.92C87.5423 22.04 86.9956 22.9467 86.1956 23.64C87.1556 23.32 88.1823 22.7867 89.2756 22.04C90.369 21.2933 91.3956 20.16 92.3556 18.64C92.4356 18.5067 92.5023 18.44 92.5556 18.44C92.6356 18.4133 92.689 18.4 92.7156 18.4ZM81.3956 24.56C81.7423 24.56 82.1023 24.5067 82.4756 24.4C82.849 24.2933 83.209 24.12 83.5556 23.88C84.0356 23.5867 84.4356 23.12 84.7556 22.48C85.0756 21.84 85.329 21.1467 85.5156 20.4C85.729 19.6267 85.8756 18.8933 85.9556 18.2C86.0623 17.5067 86.1156 16.96 86.1156 16.56C86.1156 16 86.0623 15.44 85.9556 14.88C85.8756 14.32 85.849 13.7733 85.8756 13.24C85.289 14.04 84.6223 14.9333 83.8756 15.92C83.1556 16.9067 82.449 18 81.7556 19.2C82.0756 19.3867 82.3423 19.6133 82.5556 19.88C82.7956 20.12 82.9556 20.5067 83.0356 21.04C83.0623 21.2533 82.9956 21.4933 82.8356 21.76C82.7023 22 82.4356 22.12 82.0356 22.12C81.769 22.12 81.6356 22.04 81.6356 21.88C81.6356 21.7467 81.7156 21.6267 81.8756 21.52C82.1423 21.3067 82.2756 21.0667 82.2756 20.8C82.2756 20.64 82.2356 20.48 82.1556 20.32C81.969 19.9733 81.7023 19.72 81.3556 19.56C81.0356 19.4 80.689 19.32 80.3156 19.32C79.7823 19.32 79.329 19.48 78.9556 19.8C78.6356 20.0667 78.409 20.36 78.2756 20.68C78.1423 20.9733 78.0756 21.28 78.0756 21.6C78.0756 22.1067 78.209 22.5867 78.4756 23.04C78.7423 23.4667 79.0623 23.7867 79.4356 24C80.0223 24.3733 80.6756 24.56 81.3956 24.56Z" fill="white"/>
</svg>
