<svg width="17" height="17" viewBox="0 0 17 17" fill="none" xmlns="http://www.w3.org/2000/svg">
<g clip-path="url(#clip0_33_19)">
<path d="M6.20787 15.4191C6.57606 15.4191 6.87453 15.1206 6.87453 14.7524C6.87453 14.3842 6.57606 14.0858 6.20787 14.0858C5.83968 14.0858 5.5412 14.3842 5.5412 14.7524C5.5412 15.1206 5.83968 15.4191 6.20787 15.4191Z" stroke="#D9D9D9" stroke-linecap="round" stroke-linejoin="round"/>
<path d="M13.5412 15.4191C13.9094 15.4191 14.2079 15.1206 14.2079 14.7524C14.2079 14.3842 13.9094 14.0858 13.5412 14.0858C13.173 14.0858 12.8746 14.3842 12.8746 14.7524C12.8746 15.1206 13.173 15.4191 13.5412 15.4191Z" stroke="#D9D9D9" stroke-linecap="round" stroke-linejoin="round"/>
<path d="M0.874573 1.41913H3.54124L5.32791 10.3458C5.38887 10.6527 5.55584 10.9284 5.7996 11.1247C6.04336 11.3209 6.34837 11.4251 6.66124 11.4191H13.1412C13.4541 11.4251 13.7591 11.3209 14.0029 11.1247C14.2466 10.9284 14.4136 10.6527 14.4746 10.3458L15.5412 4.75246H4.20791" stroke="#D9D9D9" stroke-linecap="round" stroke-linejoin="round"/>
</g>
<defs>
<clipPath id="clip0_33_19">
<rect width="16" height="16" fill="white" transform="translate(0.207886 0.752441)"/>
</clipPath>
</defs>
</svg>
